<svg width="119" height="120" viewBox="0 0 119 120" fill="none" xmlns="http://www.w3.org/2000/svg">
<g id="Clip path group">
<mask id="mask0_5104_7779" style="mask-type:luminance" maskUnits="userSpaceOnUse" x="0" y="0" width="119" height="120">
<g id="clip-path">
<path id="Rettangolo 344" d="M119 0.5H0V119.5H119V0.5Z" fill="white"/>
</g>
</mask>
<g mask="url(#mask0_5104_7779)">
<g id="MOTRIO - Icon Maintenance">
<g id="Raggruppa 22">
<path id="Tracciato 55" d="M69.9862 96.2616H68.1766C67.0625 96.2604 65.9944 95.8172 65.2066 95.0294C64.4188 94.2416 63.9756 93.1735 63.9743 92.0594V89.2647H38.5931V92.0594C38.5918 93.1735 38.1487 94.2416 37.3609 95.0294C36.5731 95.8172 35.5049 96.2604 34.3908 96.2616H32.5806C31.4667 96.26 30.3989 95.8168 29.6113 95.029C28.8238 94.2412 28.3808 93.1733 28.3795 92.0594V75.7768L25.6888 74.7948C25.3519 74.671 25.061 74.4468 24.8554 74.1526C24.6498 73.8584 24.5394 73.5081 24.5391 73.1492V70.4987C24.5395 70.0345 24.7241 69.5893 25.0523 69.2609C25.3805 68.9325 25.8255 68.7476 26.2898 68.7468H30.0461C30.3981 68.747 30.7436 68.6522 31.0461 68.4724C31.3487 68.2926 31.597 68.0344 31.765 67.7251L35.5093 60.8615C35.9516 60.0503 36.6044 59.3732 37.399 58.9016C38.1936 58.43 39.1007 58.1813 40.0247 58.1816C40.2803 58.1816 40.5254 58.2832 40.7061 58.4639C40.8869 58.6446 40.9884 58.8898 40.9884 59.1454C40.9884 59.401 40.8869 59.6461 40.7061 59.8268C40.5254 60.0075 40.2803 60.1091 40.0247 60.1091C39.4467 60.1086 38.8793 60.264 38.3821 60.5589C37.885 60.8537 37.4766 61.2772 37.1999 61.7847L33.4575 68.6488C33.1238 69.2622 32.6307 69.7742 32.0303 70.1307C31.4299 70.4871 30.7444 70.6749 30.0461 70.6742H26.4665V73.1492L29.6753 74.1992C29.8611 74.2666 30.0216 74.3897 30.135 74.5517C30.2483 74.7136 30.309 74.9066 30.3088 75.1043V92.0594C30.3092 92.6623 30.5489 93.2405 30.9751 93.667C31.4014 94.0934 31.9794 94.3334 32.5824 94.3342H34.3926C34.9957 94.3336 35.574 94.0937 36.0005 93.6672C36.4269 93.2407 36.6668 92.6625 36.6674 92.0594V88.3013C36.6674 88.0462 36.7688 87.8016 36.9491 87.6213C37.1294 87.441 37.374 87.3396 37.6291 87.3396H64.9378C65.1928 87.3396 65.4374 87.441 65.6177 87.6213C65.7981 87.8016 65.8994 88.0462 65.8994 88.3013V92.06C65.9 92.6631 66.1399 93.2413 66.5664 93.6678C66.9928 94.0943 67.5711 94.3342 68.1742 94.3348H69.9844C70.5877 94.3343 71.1661 94.0944 71.5927 93.6678C72.0192 93.2411 72.2589 92.6627 72.2593 92.0594V83.0851C72.2593 82.8295 72.3608 82.5844 72.5415 82.4036C72.7223 82.2229 72.9674 82.1214 73.223 82.1214C73.4786 82.1214 73.7237 82.2229 73.9044 82.4036C74.0852 82.5844 74.1867 82.8295 74.1867 83.0851V92.0594C74.1854 93.1732 73.7425 94.241 72.9551 95.0288C72.1677 95.8165 71.1001 96.2599 69.9862 96.2616Z" fill="black"/>
<path id="Tracciato 56" d="M41.9815 22.0088C44.9976 22.0083 47.9705 22.726 50.6542 24.1024C53.3379 25.4788 55.6554 27.4743 57.4149 29.924C59.1744 32.3737 60.3254 35.207 60.7727 38.1898C61.22 41.1725 60.9507 44.2189 59.9872 47.0769L93.5764 80.6644C95.16 82.2482 96.0496 84.3963 96.0494 86.636C96.0493 88.8758 95.1594 91.0237 93.5755 92.6073C91.9917 94.191 89.8436 95.0805 87.6039 95.0804C85.3641 95.0802 83.2162 94.1903 81.6325 92.6064L48.0457 59.0214C44.9167 60.0761 41.5668 60.2971 38.3263 59.6627C35.0858 59.0282 32.0666 57.5603 29.5663 55.4035C27.066 53.2467 25.171 50.4755 24.068 47.3632C22.965 44.2509 22.6921 40.9048 23.2763 37.6549C23.3071 37.4813 23.3851 37.3195 23.5017 37.1872C23.6183 37.0549 23.769 36.9572 23.9374 36.9048C24.1057 36.852 24.2852 36.8465 24.4564 36.8889C24.6276 36.9313 24.7838 37.02 24.908 37.1452L33.4718 45.7102L43.8879 42.9185L46.6778 32.5036L38.1128 23.9362C37.9877 23.8121 37.8991 23.656 37.8567 23.4849C37.8143 23.3138 37.8197 23.1344 37.8724 22.9662C37.9248 22.7978 38.0225 22.6471 38.1548 22.5305C38.287 22.4139 38.4488 22.3359 38.6225 22.3051C39.7313 22.1078 40.8553 22.0086 41.9815 22.0088ZM87.6066 93.1516C88.8955 93.1518 90.1556 92.7698 91.2273 92.0539C92.2991 91.3379 93.1345 90.3202 93.6278 89.1294C94.1212 87.9386 94.2503 86.6283 93.9988 85.3641C93.7473 84.1 93.1266 82.9388 92.2151 82.0275L58.198 48.0103C58.0672 47.8798 57.9768 47.7143 57.9376 47.5338C57.8983 47.3532 57.912 47.1652 57.9768 46.9922C58.9436 44.4091 59.2702 41.6303 58.9286 38.8935C58.587 36.1567 57.5874 33.5434 56.0153 31.2773C54.4433 29.0111 52.3456 27.1596 49.9018 25.8811C47.4579 24.6027 44.7408 23.9353 41.9827 23.9362C41.6119 23.941 41.2441 23.9482 40.8745 23.9723L48.4352 31.5342C48.555 31.6537 48.6411 31.8027 48.6849 31.9662C48.7287 32.1296 48.7286 32.3018 48.6846 32.4652L45.6062 43.9547C45.5626 44.1182 45.4767 44.2673 45.357 44.387C45.2373 44.5067 45.0882 44.5926 44.9247 44.6362L33.4321 47.7158C33.2687 47.7598 33.0966 47.7599 32.9332 47.7161C32.7697 47.6723 32.6207 47.5862 32.5012 47.4664L24.9423 39.9051C24.7595 42.7496 25.2916 45.5946 26.4899 48.1809C27.6882 50.7671 29.5146 53.0124 31.8028 54.712C34.091 56.4117 36.7682 57.5116 39.5903 57.9117C42.4125 58.3118 45.2899 57.9993 47.9604 57.0026C48.1334 56.9378 48.3214 56.9241 48.502 56.9634C48.6825 57.0026 48.848 57.093 48.9785 57.2238L82.9956 91.241C83.5996 91.8486 84.3181 92.3304 85.1096 92.6584C85.9011 92.9864 86.7498 93.154 87.6066 93.1516Z" fill="#E00008"/>
</g>
</g>
</g>
</g>
</svg>
