<svg width="119" height="120" viewBox="0 0 119 120" fill="none" xmlns="http://www.w3.org/2000/svg">
<mask id="mask0_5314_2981" style="mask-type:luminance" maskUnits="userSpaceOnUse" x="0" y="0" width="119" height="120">
<path d="M119 0.5H0V119.5H119V0.5Z" fill="white"/>
</mask>
<g mask="url(#mask0_5314_2981)">
<path d="M55.6576 14.5472H65.5209C69.4701 14.5376 73.2618 16.0949 76.0642 18.8774C78.8667 21.66 80.451 25.4405 80.4695 29.3896V86.8966C80.451 90.8457 78.8667 94.6263 76.0642 97.4088C73.2618 100.191 69.4701 101.749 65.5209 101.739H55.6576C51.7084 101.749 47.9167 100.191 45.1143 97.4088C42.3119 94.6263 40.7276 90.8457 40.709 86.8966V29.3896C40.7276 25.4405 42.3119 21.66 45.1143 18.8774C47.9167 16.0949 51.7084 14.5376 55.6576 14.5472ZM65.5209 99.8239C68.9606 99.8324 72.2631 98.476 74.7039 96.0525C77.1448 93.629 78.5246 90.3362 78.5407 86.8966V29.3896C78.5246 25.95 77.1448 22.6572 74.7039 20.2337C72.2631 17.8102 68.9606 16.4539 65.5209 16.4623H55.6576C52.218 16.4539 48.9154 17.8102 46.4746 20.2337C44.0337 22.6572 42.6539 25.95 42.6378 29.3896V86.8966C42.6539 90.3362 44.0337 93.629 46.4746 96.0525C48.9154 98.476 52.218 99.8324 55.6576 99.8239H65.5209Z" fill="black"/>
<path d="M50.9533 45.5489C50.7915 45.549 50.6322 45.5083 50.4902 45.4308L41.632 40.6074C41.5209 40.5476 41.4229 40.4663 41.3435 40.3683C41.2641 40.2703 41.205 40.1575 41.1694 40.0365C41.1339 39.9154 41.1228 39.7886 41.1366 39.6632C41.1505 39.5378 41.1891 39.4165 41.2501 39.3061C41.3743 39.0829 41.5816 38.9178 41.827 38.8468C42.0723 38.7758 42.3358 38.8045 42.56 38.9269L51.4182 43.7519C51.6064 43.8534 51.7551 44.0151 51.8406 44.211C51.9261 44.407 51.9435 44.6259 51.89 44.8329C51.8365 45.0399 51.7151 45.223 51.5454 45.353C51.3756 45.4829 51.1671 45.5513 50.9533 45.5489Z" fill="black"/>
<path d="M50.9533 57.4034C50.7915 57.4035 50.6322 57.3628 50.4902 57.2853L41.632 52.4619C41.5209 52.4021 41.4229 52.3208 41.3435 52.2228C41.2641 52.1248 41.205 52.012 41.1694 51.891C41.1339 51.7699 41.1228 51.6431 41.1366 51.5177C41.1505 51.3923 41.1891 51.271 41.2501 51.1606C41.3743 50.9374 41.5816 50.7723 41.827 50.7013C42.0723 50.6303 42.3358 50.659 42.56 50.7814L51.4182 55.6064C51.6064 55.7079 51.7551 55.8696 51.8406 56.0655C51.9261 56.2615 51.9435 56.4804 51.89 56.6874C51.8365 56.8944 51.7151 57.0775 51.5454 57.2075C51.3756 57.3374 51.1671 57.4058 50.9533 57.4034Z" fill="black"/>
<path d="M50.9533 69.2572C50.7915 69.2572 50.6322 69.2166 50.4902 69.139L41.632 64.3157C41.5209 64.2558 41.4229 64.1745 41.3435 64.0765C41.2641 63.9785 41.205 63.8657 41.1694 63.7447C41.1339 63.6237 41.1228 63.4968 41.1366 63.3715C41.1505 63.2461 41.1891 63.1247 41.2501 63.0144C41.3743 62.7912 41.5816 62.6261 41.827 62.555C42.0723 62.484 42.3358 62.5128 42.56 62.6351L51.4182 67.4602C51.6064 67.5617 51.7551 67.7233 51.8406 67.9193C51.9261 68.1152 51.9435 68.3342 51.89 68.5412C51.8365 68.7482 51.7151 68.9313 51.5454 69.0612C51.3756 69.1912 51.1671 69.2596 50.9533 69.2572Z" fill="black"/>
<path d="M50.9533 81.1109C50.7915 81.111 50.6322 81.0704 50.4902 80.9928L41.632 76.1694C41.5209 76.1096 41.4229 76.0283 41.3435 75.9303C41.2641 75.8323 41.205 75.7195 41.1694 75.5985C41.1339 75.4775 41.1228 75.3506 41.1366 75.2252C41.1505 75.0999 41.1891 74.9785 41.2501 74.8681C41.3743 74.6449 41.5816 74.4798 41.827 74.4088C42.0723 74.3378 42.3358 74.3666 42.56 74.4889L51.4182 79.3139C51.6064 79.4154 51.7551 79.5771 51.8406 79.773C51.9261 79.969 51.9435 80.188 51.89 80.395C51.8365 80.6019 51.7151 80.785 51.5454 80.915C51.3756 81.0449 51.1671 81.1133 50.9533 81.1109Z" fill="black"/>
<path d="M50.9533 33.6949C50.7915 33.695 50.6322 33.6543 50.4902 33.5768L41.632 28.7534C41.5209 28.6936 41.4229 28.6123 41.3435 28.5143C41.2641 28.4163 41.205 28.3035 41.1694 28.1825C41.1339 28.0614 41.1228 27.9346 41.1366 27.8092C41.1505 27.6838 41.1891 27.5625 41.2501 27.4521C41.3743 27.2289 41.5816 27.0638 41.827 26.9928C42.0723 26.9218 42.3358 26.9505 42.56 27.0729L51.4182 31.8979C51.6064 31.9994 51.7551 32.1611 51.8406 32.357C51.9261 32.553 51.9435 32.7719 51.89 32.9789C51.8365 33.1859 51.7151 33.369 51.5454 33.499C51.3756 33.6289 51.1671 33.6973 50.9533 33.6949Z" fill="black"/>
<path d="M50.4983 92.9647C50.3364 92.9647 50.1772 92.9241 50.0351 92.8465L41.1769 88.0232C41.0659 87.9633 40.9678 87.882 40.8884 87.784C40.809 87.686 40.7499 87.5733 40.7144 87.4522C40.6789 87.3312 40.6677 87.2043 40.6815 87.079C40.6954 86.9536 40.734 86.8322 40.7951 86.7219C40.9192 86.4987 41.1266 86.3336 41.3719 86.2626C41.6172 86.1915 41.8807 86.2203 42.1049 86.3426L50.9631 91.1677C51.1513 91.2692 51.3 91.4309 51.3855 91.6268C51.4711 91.8228 51.4885 92.0417 51.4349 92.2487C51.3814 92.4557 51.2601 92.6388 51.0903 92.7687C50.9205 92.8987 50.7121 92.9671 50.4983 92.9647Z" fill="black"/>
<path d="M70.2133 45.5489C70.0406 45.5493 69.8709 45.5034 69.722 45.4159C69.5731 45.3284 69.4503 45.2026 69.3666 45.0515C69.3058 44.9412 69.2674 44.82 69.2537 44.6948C69.24 44.5696 69.2512 44.443 69.2867 44.3222C69.3222 44.2013 69.3813 44.0887 69.4605 43.9909C69.5398 43.893 69.6376 43.8118 69.7484 43.7519L78.6075 38.9269C78.8317 38.8045 79.0952 38.7758 79.3405 38.8468C79.5859 38.9178 79.7932 39.0829 79.9174 39.3061C79.9784 39.4165 80.017 39.5378 80.0309 39.6632C80.0447 39.7886 80.0336 39.9154 79.998 40.0365C79.9625 40.1575 79.9034 40.2703 79.824 40.3683C79.7446 40.4663 79.6465 40.5476 79.5355 40.6074L70.6773 45.4308C70.535 45.5085 70.3754 45.5491 70.2133 45.5489Z" fill="black"/>
<path d="M70.2133 57.4034C70.0406 57.4038 69.8709 57.3578 69.722 57.2704C69.5731 57.1829 69.4503 57.057 69.3666 56.906C69.3058 56.7957 69.2674 56.6745 69.2537 56.5493C69.24 56.4241 69.2512 56.2975 69.2867 56.1767C69.3222 56.0558 69.3813 55.9432 69.4605 55.8454C69.5398 55.7475 69.6376 55.6663 69.7484 55.6064L78.6075 50.7814C78.8317 50.659 79.0952 50.6303 79.3405 50.7013C79.5859 50.7723 79.7932 50.9374 79.9174 51.1606C79.9784 51.271 80.017 51.3923 80.0309 51.5177C80.0447 51.6431 80.0336 51.7699 79.998 51.891C79.9625 52.012 79.9034 52.1248 79.824 52.2228C79.7446 52.3208 79.6465 52.4021 79.5355 52.4619L70.6773 57.2853C70.535 57.363 70.3754 57.4036 70.2133 57.4034Z" fill="black"/>
<path d="M70.2133 69.2572C70.0406 69.2575 69.8709 69.2116 69.722 69.1241C69.5731 69.0366 69.4503 68.9108 69.3666 68.7598C69.3058 68.6495 69.2674 68.5283 69.2537 68.4031C69.24 68.2779 69.2512 68.1512 69.2867 68.0304C69.3222 67.9096 69.3813 67.797 69.4605 67.6991C69.5398 67.6012 69.6376 67.52 69.7484 67.4602L78.6075 62.6351C78.8317 62.5128 79.0952 62.484 79.3405 62.555C79.5859 62.6261 79.7932 62.7912 79.9174 63.0144C79.9784 63.1247 80.017 63.2461 80.0309 63.3715C80.0447 63.4968 80.0336 63.6237 79.998 63.7447C79.9625 63.8657 79.9034 63.9785 79.824 64.0765C79.7446 64.1745 79.6465 64.2558 79.5355 64.3157L70.6773 69.139C70.535 69.2167 70.3754 69.2574 70.2133 69.2572Z" fill="black"/>
<path d="M70.2133 81.1109C70.0406 81.1113 69.8709 81.0654 69.722 80.9779C69.5731 80.8904 69.4503 80.7646 69.3666 80.6135C69.3058 80.5032 69.2674 80.382 69.2537 80.2568C69.24 80.1317 69.2512 80.005 69.2867 79.8842C69.3222 79.7633 69.3813 79.6508 69.4605 79.5529C69.5398 79.455 69.6376 79.3738 69.7484 79.3139L78.6075 74.4889C78.8317 74.3666 79.0952 74.3378 79.3405 74.4088C79.5859 74.4798 79.7932 74.6449 79.9174 74.8681C79.9784 74.9785 80.017 75.0999 80.0309 75.2252C80.0447 75.3506 80.0336 75.4775 79.998 75.5985C79.9625 75.7195 79.9034 75.8323 79.824 75.9303C79.7446 76.0283 79.6465 76.1096 79.5355 76.1694L70.6773 80.9928C70.535 81.0705 70.3754 81.1111 70.2133 81.1109Z" fill="black"/>
<path d="M70.2133 33.6949C70.0406 33.6953 69.8709 33.6493 69.722 33.5619C69.5731 33.4744 69.4503 33.3486 69.3666 33.1975C69.3058 33.0872 69.2674 32.966 69.2537 32.8408C69.24 32.7156 69.2512 32.589 69.2867 32.4682C69.3222 32.3473 69.3813 32.2347 69.4605 32.1369C69.5398 32.039 69.6376 31.9578 69.7484 31.8979L78.6075 27.0729C78.8317 26.9505 79.0952 26.9218 79.3405 26.9928C79.5859 27.0638 79.7932 27.2289 79.9174 27.4521C79.9784 27.5625 80.017 27.6838 80.0309 27.8092C80.0447 27.9346 80.0336 28.0614 79.998 28.1825C79.9625 28.3035 79.9034 28.4163 79.824 28.5143C79.7446 28.6123 79.6465 28.6936 79.5355 28.7534L70.6773 33.5768C70.535 33.6545 70.3754 33.6951 70.2133 33.6949Z" fill="black"/>
<path d="M70.6684 92.9647C70.4957 92.9651 70.326 92.9191 70.1771 92.8316C70.0282 92.7442 69.9054 92.6183 69.8217 92.4673C69.7609 92.357 69.7225 92.2358 69.7088 92.1106C69.6951 91.9854 69.7063 91.8588 69.7418 91.7379C69.7773 91.6171 69.8364 91.5045 69.9156 91.4066C69.9949 91.3088 70.0927 91.2276 70.2035 91.1677L79.0626 86.3426C79.2868 86.2203 79.5503 86.1915 79.7956 86.2626C80.0409 86.3336 80.2483 86.4987 80.3724 86.7219C80.4335 86.8322 80.4721 86.9536 80.4859 87.079C80.4998 87.2043 80.4886 87.3312 80.4531 87.4522C80.4176 87.5733 80.3585 87.686 80.2791 87.784C80.1997 87.882 80.1016 87.9633 79.9906 88.0232L71.1324 92.8465C70.9901 92.9242 70.8305 92.9649 70.6684 92.9647Z" fill="black"/>
<path d="M56.002 95.5913C55.7471 95.5922 55.5023 95.4919 55.3214 95.3125C55.1405 95.133 55.0382 94.889 55.0371 94.6342V23.5826C55.0382 23.3278 55.1405 23.0838 55.3214 22.9044C55.5023 22.7249 55.7471 22.6246 56.002 22.6255C56.2566 22.6248 56.5012 22.7252 56.6819 22.9047C56.8627 23.0841 56.9648 23.3279 56.9659 23.5826V94.6342C56.9648 94.8889 56.8627 95.1327 56.6819 95.3122C56.5012 95.4916 56.2566 95.592 56.002 95.5913Z" fill="#E00008"/>
<path d="M65.166 95.5913C64.9112 95.5922 64.6664 95.4919 64.4855 95.3125C64.3046 95.133 64.2023 94.889 64.2012 94.6342V23.5826C64.2023 23.3278 64.3046 23.0838 64.4855 22.9044C64.6664 22.7249 64.9112 22.6246 65.166 22.6255C65.4207 22.6248 65.6653 22.7252 65.846 22.9047C66.0267 23.0841 66.1289 23.3279 66.13 23.5826V94.6342C66.1289 94.8889 66.0267 95.1327 65.846 95.3122C65.6653 95.4916 65.4207 95.592 65.166 95.5913Z" fill="#E00008"/>
</g>
</svg>
