<svg width="119" height="120" viewBox="0 0 119 120" fill="none" xmlns="http://www.w3.org/2000/svg">
<mask id="mask0_5314_2931" style="mask-type:luminance" maskUnits="userSpaceOnUse" x="0" y="0" width="119" height="120">
<path d="M119 0.5H0V119.5H119V0.5Z" fill="white"/>
</mask>
<g mask="url(#mask0_5314_2931)">
<path d="M65.1174 102.965C55.0833 102.984 45.4515 99.0213 38.335 91.9474C31.2186 84.8735 27.1987 75.2657 27.1572 65.2316C27.1572 64.9777 27.2581 64.7341 27.4377 64.5545C27.6173 64.3749 27.8608 64.2741 28.1148 64.2741C28.3688 64.2741 28.6123 64.3749 28.7919 64.5545C28.9715 64.7341 29.0724 64.9777 29.0724 65.2316C29.0305 72.369 31.1087 79.3581 35.0435 85.313C38.9784 91.2679 44.5927 95.9205 51.1748 98.6809C57.7569 101.441 65.0104 102.185 72.0158 100.819C79.0212 99.4518 85.4631 96.0359 90.5249 91.0038C95.5868 85.9717 99.0405 79.55 100.448 72.5528C101.856 65.5555 101.155 58.2978 98.4334 51.6995C95.7118 45.1013 91.0924 39.4597 85.1607 35.4899C79.2291 31.5201 72.2523 29.4008 65.1148 29.4006C64.9874 29.4045 64.8606 29.3827 64.7418 29.3366C64.623 29.2905 64.5147 29.221 64.4233 29.1323C64.3318 29.0435 64.2591 28.9373 64.2095 28.82C64.1598 28.7026 64.1343 28.5765 64.1343 28.4491C64.1343 28.3216 64.1598 28.1955 64.2095 28.0782C64.2591 27.9608 64.3318 27.8546 64.4233 27.7659C64.5147 27.6771 64.623 27.6077 64.7418 27.5616C64.8606 27.5155 64.9874 27.4937 65.1148 27.4975C70.0852 27.4738 75.0113 28.4324 79.6101 30.318C84.209 32.2037 88.39 34.9794 91.913 38.4857C95.436 41.9919 98.2315 46.1596 100.139 50.7495C102.047 55.3393 103.029 60.2608 103.029 65.2312C103.029 70.2016 102.047 75.1231 100.139 79.7129C98.2315 84.3027 95.436 88.4705 91.913 91.9767C88.39 95.483 84.209 98.2587 79.6101 100.144C75.0113 102.03 70.0852 102.989 65.1148 102.965H65.1174Z" fill="#E00008"/>
<path d="M65.1178 16.4468C65.2432 16.4464 65.3674 16.4708 65.4833 16.5185C65.5993 16.5661 65.7047 16.6361 65.7935 16.7246C65.8824 16.813 65.953 16.918 66.0013 17.0337C66.0496 17.1494 66.0746 17.2734 66.075 17.3988V36.2676C66.0746 36.3929 66.0496 36.517 66.0013 36.6327C65.953 36.7483 65.8824 36.8534 65.7935 36.9418C65.7047 37.0302 65.5993 37.1002 65.4833 37.1479C65.3674 37.1955 65.2432 37.2199 65.1178 37.2196C57.669 37.2061 50.5189 40.1477 45.2361 45.3991C39.9532 50.6505 36.969 57.7829 36.9379 65.2316C36.9376 65.357 36.9126 65.4811 36.8643 65.5967C36.816 65.7124 36.7454 65.8175 36.6565 65.9059C36.5676 65.9943 36.4622 66.0643 36.3463 66.112C36.2303 66.1596 36.1061 66.184 35.9808 66.1836H16.9982C16.8728 66.184 16.7486 66.1596 16.6327 66.112C16.5167 66.0643 16.4113 65.9943 16.3224 65.9059C16.2335 65.8175 16.1629 65.7124 16.1147 65.5967C16.0664 65.4811 16.0414 65.357 16.041 65.2316C16.041 38.3317 38.0569 16.4468 65.1178 16.4468ZM64.1607 35.3301V18.3602C52.0271 18.5862 40.4492 23.4883 31.8424 32.0438C23.2355 40.5993 18.2642 52.1476 17.9656 64.2796H35.0374C35.3116 56.6593 38.4732 49.4284 43.8812 44.0527C49.2891 38.677 56.5389 35.5588 64.1607 35.3301Z" fill="#E00008"/>
<path d="M65.1183 44.8783C69.1387 44.9023 73.0619 46.1164 76.3931 48.3675C79.7243 50.6186 82.3142 53.8058 83.8362 57.5271C85.3581 61.2484 85.7439 65.337 84.9448 69.2773C84.1458 73.2176 82.1977 76.8329 79.3463 79.6674C76.495 82.5018 72.8681 84.4283 68.9231 85.2039C64.9781 85.9794 60.8919 85.5693 57.1797 84.0253C53.4676 82.4812 50.2958 79.8724 48.0646 76.5278C45.8334 73.1833 44.6426 69.2529 44.6426 65.2324C44.6505 62.5515 45.1865 59.8984 46.2198 57.4246C47.2531 54.9508 48.7636 52.7047 50.6649 50.8146C52.5663 48.9246 54.8213 47.4275 57.3012 46.409C59.7811 45.3904 62.4374 44.8703 65.1183 44.8783ZM65.1183 83.6825C68.7628 83.6609 72.3193 82.5604 75.3392 80.5198C78.359 78.4792 80.7068 75.59 82.0865 72.2166C83.4662 68.8433 83.816 65.1368 83.0916 61.5649C82.3673 57.993 80.6013 54.7156 78.0165 52.1462C75.4317 49.5767 72.1438 47.8304 68.5677 47.1274C64.9915 46.4244 61.2872 46.7962 57.9221 48.196C54.5571 49.5958 51.6819 51.9609 49.6594 54.9928C47.6369 58.0248 46.5576 61.5878 46.5577 65.2324C46.5724 70.1403 48.5362 74.8413 52.0169 78.3014C55.4977 81.7614 60.2104 83.6971 65.1183 83.6825Z" fill="black"/>
<path d="M65.1173 57.4092C67.1984 57.4031 69.1967 58.2238 70.6726 59.6909C72.1485 61.158 72.9813 63.1513 72.9876 65.2324C72.9813 67.3134 72.1485 69.3067 70.6726 70.7739C69.1967 72.241 67.1984 73.0617 65.1173 73.0556C63.0363 73.0617 61.038 72.241 59.5621 70.7739C58.0861 69.3067 57.2534 67.3134 57.2471 65.2324C57.2557 63.152 58.0891 61.1601 59.5646 59.6934C61.04 58.2268 63.037 57.4053 65.1173 57.4092ZM65.1173 71.1524C66.2867 71.1455 67.4278 70.7924 68.3967 70.1377C69.3656 69.483 70.119 68.556 70.5616 67.4737C71.0043 66.3913 71.1166 65.2021 70.8842 64.0561C70.6518 62.91 70.0853 61.8585 69.2559 61.034C68.4266 60.2096 67.3717 59.6493 66.2243 59.4237C65.0769 59.1981 63.8884 59.3173 62.8087 59.7664C61.729 60.2155 60.8065 60.9743 60.1575 61.9471C59.5086 62.9198 59.1622 64.063 59.1622 65.2324C59.167 66.8071 59.797 68.3154 60.9138 69.4256C62.0306 70.5358 63.5426 71.157 65.1173 71.1524Z" fill="black"/>
</g>
</svg>
