<svg width="119" height="120" viewBox="0 0 119 120" fill="none" xmlns="http://www.w3.org/2000/svg">
<mask id="mask0_5314_2947" style="mask-type:luminance" maskUnits="userSpaceOnUse" x="0" y="0" width="119" height="120">
<path d="M119 0.5H0V119.5H119V0.5Z" fill="white"/>
</mask>
<g mask="url(#mask0_5314_2947)">
<path d="M29.0059 23.2068H41.5146C42.1387 23.2079 42.7369 23.4563 43.1781 23.8976C43.6194 24.3389 43.8678 24.937 43.8689 25.5611V32.874C43.8689 33.1238 43.7697 33.3633 43.5931 33.5399C43.4165 33.7165 43.177 33.8158 42.9272 33.8158H27.595C27.3453 33.8158 27.1058 33.7165 26.9291 33.5399C26.7525 33.3633 26.6533 33.1238 26.6533 32.874V25.5611C26.6545 24.9373 26.9026 24.3394 27.3435 23.8982C27.7844 23.457 28.3822 23.2084 29.0059 23.2068ZM41.9821 31.9306V25.5611C41.9818 25.4372 41.9325 25.3184 41.8449 25.2308C41.7573 25.1432 41.6385 25.0939 41.5146 25.0937H29.0059C28.882 25.0939 28.7633 25.1432 28.6756 25.2308C28.588 25.3184 28.5387 25.4372 28.5385 25.5611V31.9306H41.9821Z" fill="#E00008"/>
<path d="M77.0837 23.2068H89.5898C90.2139 23.2079 90.812 23.4563 91.2533 23.8976C91.6946 24.3389 91.943 24.937 91.9441 25.5611V32.874C91.9441 33.1238 91.8449 33.3633 91.6683 33.5399C91.4917 33.7165 91.2522 33.8158 91.0024 33.8158H75.6702C75.4205 33.8158 75.1809 33.7165 75.0043 33.5399C74.8277 33.3633 74.7285 33.1238 74.7285 32.874V25.5611C74.7296 24.937 74.9781 24.3389 75.4193 23.8976C75.8606 23.4563 76.4596 23.2079 77.0837 23.2068ZM90.0573 31.9306V25.5611C90.057 25.4372 90.0077 25.3184 89.9201 25.2308C89.8325 25.1432 89.7137 25.0939 89.5898 25.0937H77.0837C76.9598 25.0939 76.841 25.1432 76.7534 25.2308C76.6658 25.3184 76.6165 25.4372 76.6162 25.5611V31.9306H90.0573Z" fill="black"/>
<path d="M36.931 72.847C36.6812 72.847 36.4417 72.7478 36.2651 72.5712C36.0885 72.3946 35.9893 72.155 35.9893 71.9053V58.1698C35.9893 57.92 36.0885 57.6805 36.2651 57.5039C36.4417 57.3272 36.6812 57.228 36.931 57.228C37.1807 57.228 37.4203 57.3272 37.5969 57.5039C37.7735 57.6805 37.8727 57.92 37.8727 58.1698V71.9036C37.8729 72.0274 37.8487 72.15 37.8015 72.2645C37.7543 72.3789 37.685 72.4829 37.5975 72.5706C37.51 72.6582 37.4061 72.7277 37.2918 72.7751C37.1774 72.8226 37.0548 72.847 36.931 72.847Z" fill="#E00008"/>
<path d="M43.7986 65.9774H30.0648C29.815 65.9774 29.5755 65.8782 29.3989 65.7016C29.2223 65.525 29.123 65.2855 29.123 65.0357C29.123 64.786 29.2223 64.5464 29.3989 64.3698C29.5755 64.1932 29.815 64.094 30.0648 64.094H43.7986C44.0483 64.094 44.2879 64.1932 44.4645 64.3698C44.6411 64.5464 44.7403 64.786 44.7403 65.0357C44.7403 65.2855 44.6411 65.525 44.4645 65.7016C44.2879 65.8782 44.0483 65.9774 43.7986 65.9774Z" fill="#E00008"/>
<path d="M90.2029 65.9774H76.4691C76.2193 65.9774 75.9798 65.8782 75.8032 65.7016C75.6266 65.525 75.5273 65.2855 75.5273 65.0357C75.5273 64.786 75.6266 64.5464 75.8032 64.3698C75.9798 64.1932 76.2193 64.094 76.4691 64.094H90.2029C90.4526 64.094 90.6922 64.1932 90.8688 64.3698C91.0454 64.5464 91.1446 64.786 91.1446 65.0357C91.1446 65.2855 91.0454 65.525 90.8688 65.7016C90.6922 65.8782 90.4526 65.9774 90.2029 65.9774Z" fill="black"/>
<path d="M17.097 31.9307H101.498C101.748 31.9307 101.987 32.0299 102.164 32.2065C102.34 32.3831 102.44 32.6226 102.44 32.8724V95.4107C102.44 95.6605 102.34 95.9 102.164 96.0766C101.987 96.2533 101.748 96.3525 101.498 96.3525H17.097C16.8472 96.3525 16.6077 96.2533 16.4311 96.0766C16.2545 95.9 16.1553 95.6605 16.1553 95.4107V32.8724C16.1553 32.6226 16.2545 32.3831 16.4311 32.2065C16.6077 32.0299 16.8472 31.9307 17.097 31.9307ZM100.555 33.8141H18.0387V94.4682H100.551L100.555 33.8141Z" fill="#E00008"/>
</g>
</svg>
