<svg width="119" height="120" viewBox="0 0 119 120" fill="none" xmlns="http://www.w3.org/2000/svg">
<mask id="mask0_5314_3008" style="mask-type:luminance" maskUnits="userSpaceOnUse" x="0" y="0" width="119" height="120">
<path d="M119 0.5H0V119.5H119V0.5Z" fill="white"/>
</mask>
<g mask="url(#mask0_5314_3008)">
<path d="M55.9579 88.9212C55.6823 88.9218 55.4109 88.8532 55.1686 88.7218C54.7714 88.5046 54.4753 88.1401 54.3443 87.7068C54.2133 87.2734 54.2579 86.806 54.4683 86.4051L76.919 39.6903C77.0208 39.4925 77.1608 39.3169 77.3311 39.1738C77.5014 39.0307 77.6985 38.9229 77.9109 38.8568C78.1232 38.7906 78.3467 38.7675 78.5681 38.7886C78.7895 38.8097 79.0045 38.8747 79.2006 38.9798C79.5977 39.1971 79.8935 39.5616 80.0245 39.9949C80.1555 40.4282 80.1111 40.8955 79.9009 41.2964L57.4518 88.0103C57.3104 88.2842 57.0964 88.514 56.8333 88.6745C56.5701 88.835 56.2679 88.9201 55.9596 88.9204" fill="#E00008"/>
<path d="M87.222 81.8668C86.6646 81.8665 86.1104 81.7819 85.5782 81.616C80.1002 79.9081 74.4685 78.7394 68.7633 78.1265C68.5208 78.0885 68.3022 77.9589 68.1526 77.7645C68.003 77.57 67.9337 77.3254 67.9592 77.0814C67.9847 76.8373 68.103 76.6124 68.2896 76.453C68.4762 76.2936 68.7169 76.212 68.9619 76.225C74.7876 76.8506 80.5384 78.0437 86.1321 79.7873C86.973 80.0689 87.8899 80.0161 88.6928 79.6397C89.4957 79.2634 90.1229 78.5924 90.4444 77.766C92.5847 71.7441 94.7524 66.1931 96.8533 60.8235C98.9542 55.454 101.124 49.9072 103.256 43.8938C103.706 42.781 103.756 41.5469 103.4 40.4009C102.859 38.889 101.406 37.6801 99.0809 36.8052C73.4777 27.3798 45.3548 27.3798 19.7515 36.8052C18.9067 37.0771 18.126 37.518 17.4569 38.1011C16.7879 38.6842 16.2444 39.3974 15.8596 40.1971C15.31 41.3485 15.2089 42.6634 15.5763 43.8853C17.7114 49.9038 19.88 55.448 21.9774 60.8064C24.0749 66.1648 26.2529 71.7356 28.3915 77.7695C28.7144 78.5942 29.3421 79.2632 30.1447 79.6379C30.9473 80.0126 31.8632 80.0642 32.7028 79.7822C39.4515 77.6782 46.4248 76.378 53.4782 75.9083C53.7264 75.9009 53.9677 75.9902 54.1513 76.1574C54.335 76.3245 54.4465 76.5564 54.4625 76.8042C54.4785 77.0519 54.3977 77.2962 54.237 77.4856C54.0764 77.6749 53.8485 77.7945 53.6015 77.8191C46.6941 78.281 39.8653 79.5563 33.2568 81.6185C31.953 82.0422 30.5362 81.9476 29.3004 81.3542C28.0646 80.7609 27.1048 79.7144 26.6202 78.4321C24.4876 72.4187 22.3199 66.8745 20.2233 61.5187C18.1198 56.1431 15.9427 50.5835 13.8024 44.5445C13.2667 42.8463 13.389 41.0089 14.1448 39.3967C14.6315 38.3683 15.3219 37.4495 16.174 36.6957C17.0262 35.942 18.0225 35.3691 19.1026 35.0116C45.1012 25.2894 73.7373 25.2894 99.7358 35.0116C102.605 36.0886 104.434 37.6836 105.173 39.7485C105.685 41.3179 105.633 43.0164 105.028 44.5522C102.888 50.5878 100.712 56.1517 98.6075 61.5315C96.5108 66.8848 94.3448 72.4239 92.2157 78.4244C91.8375 79.4415 91.1554 80.3176 90.2619 80.9335C89.3685 81.5494 88.3071 81.8752 87.222 81.8668Z" fill="black"/>
</g>
</svg>
