<svg width="119" height="120" viewBox="0 0 119 120" fill="none" xmlns="http://www.w3.org/2000/svg">
<g id="Clip path group">
<mask id="mask0_5314_2912" style="mask-type:luminance" maskUnits="userSpaceOnUse" x="0" y="0" width="119" height="120">
<g id="clip-path">
<path id="Rettangolo 364" d="M119 0.5H0V119.5H119V0.5Z" fill="white"/>
</g>
</mask>
<g mask="url(#mask0_5314_2912)">
<g id="MOTRIO - Icon Distribution">
<path id="Tracciato 18" d="M101.186 36.8719C101.008 36.8721 100.833 36.8231 100.68 36.7304C100.528 36.6377 100.404 36.5048 100.322 36.3463C100.241 36.1881 100.206 36.0105 100.221 35.8336C100.237 35.6568 100.301 35.4876 100.407 35.3455C101.999 33.1878 102.725 30.5124 102.443 27.846C102.161 25.1796 100.891 22.7155 98.8825 20.9388C96.8623 19.1476 94.2558 18.1585 91.5559 18.1585C88.8559 18.1585 86.2495 19.1476 84.2293 20.9388C84.0374 21.1091 83.7864 21.1972 83.5302 21.1842C83.274 21.1713 83.0331 21.0582 82.8595 20.8694C82.7737 20.7764 82.7074 20.6673 82.6643 20.5483C82.6212 20.4294 82.6023 20.3031 82.6086 20.1768C82.6149 20.0504 82.6463 19.9266 82.701 19.8126C82.7557 19.6985 82.8325 19.5965 82.9271 19.5125C85.3055 17.4018 88.3751 16.2361 91.555 16.2361C94.735 16.2361 97.8046 17.4018 100.183 19.5125C102.547 21.6054 104.042 24.5076 104.373 27.6477C104.704 30.7878 103.848 33.9381 101.972 36.4781C101.881 36.6007 101.763 36.7002 101.626 36.7686C101.49 36.837 101.339 36.8724 101.186 36.8719Z" fill="#E00008"/>
<path id="Tracciato 19" d="M91.5537 41.7083C89.0152 41.7176 86.5305 40.9767 84.4117 39.5786C82.2928 38.1805 80.6343 36.1875 79.6443 33.85C78.6696 31.5217 78.4152 28.9546 78.9139 26.4803C79.4126 24.0059 80.6416 21.7379 82.4421 19.9689C82.6039 19.8114 82.7631 19.6607 82.9258 19.5152C83.1188 19.3526 83.367 19.2707 83.6189 19.2866C83.8707 19.3026 84.1067 19.4151 84.2776 19.6008C84.447 19.7857 84.5366 20.0299 84.5269 20.2804C84.5173 20.5309 84.4093 20.7676 84.2262 20.9389C84.085 21.0648 83.9471 21.1957 83.8102 21.3293C82.3886 22.7316 81.3865 24.5028 80.9166 26.4435C80.4467 28.3843 80.5276 30.4177 81.1502 32.315C81.7831 34.2188 82.9288 35.9112 84.4613 37.2061C85.9937 38.501 87.8536 39.3481 89.8364 39.6544C91.8227 39.9704 93.8576 39.7359 95.72 38.9764C97.5824 38.2168 99.2011 36.9614 100.4 35.3465C100.553 35.1403 100.781 35.0026 101.035 34.9632C101.289 34.9238 101.548 34.9858 101.757 35.1359C101.86 35.2093 101.947 35.3024 102.013 35.4098C102.08 35.5173 102.124 35.6368 102.144 35.7616C102.164 35.8863 102.159 36.0138 102.129 36.1365C102.099 36.2593 102.045 36.3749 101.97 36.4765C100.765 38.1032 99.1942 39.424 97.3849 40.3326C95.5757 41.2411 93.5783 41.7121 91.5537 41.7074V41.7083Z" fill="black"/>
<path id="Tracciato 20" d="M42.8756 87.2406C40.5132 87.2502 38.2201 86.4422 36.3855 84.9537C34.5509 83.4652 33.2877 81.3879 32.8103 79.0741C32.3523 76.7632 32.7148 74.3648 33.8353 72.2924C34.9558 70.22 36.7641 68.6034 38.9486 67.7212C41.1394 66.8212 43.5729 66.7013 45.8416 67.3816C48.1102 68.062 50.0762 69.5011 51.4102 71.4581C52.7292 73.4053 53.3242 75.753 53.0918 78.0933C52.8594 80.4336 51.8142 82.6185 50.1381 84.2682C48.2079 86.1812 45.5974 87.2499 42.8799 87.2397L42.8756 87.2406ZM42.8756 68.8701C40.9606 68.8624 39.1018 69.5175 37.6147 70.7242C36.1276 71.9309 35.1038 73.6148 34.7169 75.4904C34.3458 77.3639 34.6398 79.3081 35.5482 80.988C36.4566 82.668 37.9226 83.9785 39.6935 84.6937C41.4696 85.4232 43.4424 85.5202 45.2816 84.9684C47.1207 84.4167 48.7144 83.2497 49.7956 81.663C50.8642 80.084 51.3457 78.1805 51.1565 76.2833C50.9672 74.3861 50.1192 72.6151 48.7597 71.2783C47.1946 69.7281 45.0785 68.862 42.8756 68.8701Z" fill="black"/>
<path id="Tracciato 21" d="M26.0707 61.4407C25.8794 61.4416 25.6921 61.3859 25.5323 61.2806C25.3725 61.1754 25.2474 61.0253 25.1727 60.8491C25.0991 60.6738 25.0798 60.4804 25.1172 60.2939C25.1546 60.1075 25.247 59.9365 25.3824 59.803C25.9809 59.2091 26.6095 58.6465 27.2659 58.1173C27.4663 57.9552 27.7226 57.8788 27.9791 57.9046C28.2356 57.9304 28.4715 58.0564 28.6357 58.2551C28.7161 58.3525 28.7764 58.4649 28.813 58.5858C28.8496 58.7068 28.8617 58.8337 28.8487 58.9594C28.8357 59.0851 28.7979 59.2069 28.7373 59.3178C28.6768 59.4286 28.5948 59.5263 28.4961 59.6052C27.8905 60.0927 27.3104 60.611 26.7582 61.1582C26.5754 61.3395 26.3282 61.4411 26.0707 61.4407Z" fill="#E00008"/>
<path id="Tracciato 22" d="M61.5771 92.5589C61.3955 92.5593 61.2175 92.5088 61.0631 92.4132C60.9088 92.3175 60.7843 92.1806 60.7039 92.0178C60.6243 91.8559 60.5925 91.6747 60.612 91.4954C60.6316 91.3161 60.7017 91.146 60.8143 91.005C64.273 86.6581 65.9884 81.1787 65.6261 75.6355C65.2638 70.0923 62.8497 64.8828 58.8546 61.023C54.8323 57.1343 49.5304 54.8453 43.9417 54.5847C38.3531 54.324 32.861 56.1096 28.4942 59.607C28.2938 59.7691 28.0375 59.8455 27.781 59.8197C27.5245 59.7939 27.2886 59.6679 27.1245 59.4692C27.0444 59.3717 26.9845 59.2592 26.9483 59.1384C26.9121 59.0176 26.9002 58.8907 26.9134 58.7653C26.9267 58.6398 26.9647 58.5182 27.0253 58.4076C27.0859 58.2969 27.1679 58.1995 27.2666 58.1208C32.0052 54.324 37.9656 52.3851 44.0311 52.6674C50.0966 52.9496 55.8512 55.4336 60.2167 59.6541C64.5523 63.8434 67.172 69.4975 67.5649 75.5137C67.9577 81.5298 66.0956 87.4766 62.3416 92.1942C62.2501 92.3089 62.1337 92.4015 62.0013 92.465C61.8689 92.5284 61.7239 92.5611 61.5771 92.5606V92.5589Z" fill="black"/>
<path id="Tracciato 23" d="M42.8767 101.551C38.0033 101.565 33.2342 100.14 29.1676 97.4544C25.101 94.7686 21.9182 90.9417 20.0184 86.4538C18.1475 81.9842 17.6584 77.0565 18.6142 72.3063C19.5701 67.5561 21.927 63.2011 25.3812 59.803C25.5642 59.6239 25.81 59.5237 26.066 59.5237C26.3221 59.5237 26.5679 59.6239 26.7509 59.803C26.8411 59.8916 26.9127 59.9972 26.9615 60.1138C27.0104 60.2304 27.0356 60.3555 27.0356 60.4819C27.0356 60.6083 27.0104 60.7334 26.9615 60.85C26.9127 60.9665 26.8411 61.0722 26.7509 61.1608C24.6364 63.241 22.957 65.7213 21.8107 68.457C20.6644 71.1928 20.074 74.1294 20.074 77.0956C20.074 80.0619 20.6644 82.9985 21.8107 85.7342C22.957 88.47 24.6364 90.9503 26.7509 93.0305C29.0407 95.2914 31.7805 97.0453 34.7923 98.1784C37.8041 99.3115 41.0206 99.7984 44.2328 99.6075C47.445 99.4165 50.5811 98.552 53.4375 97.0701C56.2938 95.5882 58.8065 93.522 60.8123 91.0058C60.9729 90.8052 61.2059 90.6757 61.4611 90.6455C61.7162 90.6152 61.9731 90.6865 62.1761 90.844C62.2761 90.9212 62.3598 91.0175 62.4222 91.1273C62.4847 91.237 62.5247 91.3582 62.5399 91.4835C62.5551 91.6089 62.5452 91.7361 62.5108 91.8576C62.4765 91.9792 62.4183 92.0927 62.3396 92.1915C60.0102 95.1171 57.0498 97.4784 53.6796 99.0991C50.3093 100.72 46.6164 101.558 42.8767 101.551Z" fill="#E00008"/>
<path id="Linea 31" d="M27.8831 59.8218C27.7276 59.8221 27.5742 59.7853 27.4359 59.7142C27.2975 59.6432 27.1782 59.54 27.0878 59.4134C27.0145 59.3105 26.9624 59.194 26.9346 59.0708C26.9067 58.9475 26.9037 58.82 26.9256 58.6955C26.9475 58.5711 26.9939 58.4522 27.0622 58.3459C27.1305 58.2396 27.2192 58.1479 27.3232 58.0762L84.1624 18.5399C84.3734 18.3935 84.6334 18.3359 84.8864 18.3794C85.1395 18.423 85.3653 18.5643 85.5151 18.7728C85.5884 18.8757 85.6405 18.9922 85.6683 19.1154C85.6962 19.2387 85.6992 19.3663 85.6773 19.4907C85.6554 19.6151 85.609 19.734 85.5407 19.8403C85.4724 19.9466 85.3837 20.0383 85.2797 20.11L28.4413 59.6471C28.2775 59.7611 28.0827 59.8221 27.8831 59.8218Z" fill="#E00008"/>
<path id="Linea 32" d="M61.206 93.0125C61.0069 93.0138 60.812 92.9541 60.6479 92.8413C60.5439 92.7695 60.4552 92.6778 60.387 92.5714C60.3188 92.465 60.2725 92.3462 60.2507 92.2217C60.2288 92.0973 60.232 91.9698 60.2599 91.8465C60.2878 91.7233 60.3399 91.6069 60.4133 91.504L100.534 35.1631C100.684 34.9547 100.91 34.8136 101.163 34.7702C101.416 34.7268 101.676 34.7846 101.887 34.9311C101.991 35.0028 102.08 35.0946 102.148 35.2009C102.216 35.3073 102.262 35.4262 102.284 35.5506C102.306 35.675 102.303 35.8026 102.275 35.9258C102.247 36.049 102.195 36.1654 102.121 36.2683L62.0005 92.605C61.9102 92.7313 61.7909 92.8342 61.6527 92.9051C61.5145 92.976 61.3614 93.0128 61.206 93.0125Z" fill="#E00008"/>
</g>
</g>
</g>
</svg>
