<svg xmlns="http://www.w3.org/2000/svg" xmlns:xlink="http://www.w3.org/1999/xlink" width="500" height="500" viewBox="0 0 500 500">
  <defs>
    <clipPath id="clip-MOTRIO_-_Icon_CarBody_T么lerie">
      <rect width="500" height="500"/>
    </clipPath>
  </defs>
  <g id="MOTRIO_-_Icon_CarBody_T么lerie" data-name="MOTRIO - Icon CarBody T么lerie" clip-path="url(#clip-MOTRIO_-_Icon_CarBody_T么lerie)">
    <path id="Linea_73" data-name="Linea 73" d="M0,91.978a3.988,3.988,0,0,1-2.828-1.172,4,4,0,0,1,0-5.657L85.149-2.828a4,4,0,0,1,5.657,0,4,4,0,0,1,0,5.657L2.828,90.806A3.987,3.987,0,0,1,0,91.978Z" transform="translate(296.857 176.214)" fill="#e00008"/>
    <path id="Linea_74" data-name="Linea 74" d="M43.989,47.989a3.987,3.987,0,0,1-2.828-1.172L-2.828,2.828a4,4,0,0,1,0-5.657,4,4,0,0,1,5.657,0L46.817,41.16a4,4,0,0,1-2.828,6.828Z" transform="translate(252.867 220.203)" fill="#e00008"/>
    <path id="Tracciato_83" data-name="Tracciato 83" d="M251.457,119.431H230.377a4,4,0,0,1-3.881-4.97,34.346,34.346,0,0,0-10.315-33.9,34.047,34.047,0,0,0-26.658-8.616,34.293,34.293,0,0,0-29.56,42.511,4,4,0,0,1-3.879,4.975H29.3a4,4,0,1,1,0-8H151.264a42.276,42.276,0,0,1,37.428-47.442,41.953,41.953,0,0,1,32.844,10.629,42.306,42.306,0,0,1,13.657,36.813h16.265l1.043-1.056-.235-22.388a4.12,4.12,0,0,0-1.678-3.765l-8.82-5.787a4,4,0,0,1-1.806-3.326l-.056-11.869a3.371,3.371,0,0,0-1.788-3.656c-7.774-3.533-30.525-12.02-73.748-14.515a117.66,117.66,0,0,1-46.129-12.136L83.551,15.588A95.052,95.052,0,0,0,41.258,5.6H29.3a4,4,0,1,1,0-8H41.258A103.093,103.093,0,0,1,87.128,8.432l34.69,17.345a109.707,109.707,0,0,0,43.012,11.3c42.965,2.48,66.433,10.6,76.6,15.219a11.119,11.119,0,0,1,6.453,11.354l.064,9.266,7.037,4.617a11.979,11.979,0,0,1,5.281,10.406l.235,22.346a9.043,9.043,0,0,1-9.042,9.14Z" transform="translate(196.018 181.599)" fill="#e00008"/>
    <path id="Tracciato_84" data-name="Tracciato 84" d="M179.05,119.43H121.8a4,4,0,0,1-3.879-4.978,34.313,34.313,0,1,0-66.53,0,4,4,0,0,1-3.878,4.979H26.01c-23.241,0-29.482-23.984-29.535-36.667A50.751,50.751,0,0,1,4.894,55.2V40.883a8.455,8.455,0,0,1,2.628-6.124A8.237,8.237,0,0,1,13.7,32.5c16.081.886,32.559-3.5,48.971-13.026C87.333,5.166,116.365-2.4,146.633-2.4H179.05a4,4,0,0,1,0,8H146.633c-28.859,0-56.5,7.19-79.942,20.794C48.907,36.722,30.929,41.464,13.258,40.491l-.364,15.99a4.036,4.036,0,0,1-.838,2.45A42.747,42.747,0,0,0,4.475,82.747c.009,1.149.453,28.683,21.535,28.683H42.7A42.281,42.281,0,0,1,80.106,63.994a42.311,42.311,0,0,1,46.857,42.063,42.579,42.579,0,0,1-.34,5.373H179.05a4,4,0,0,1,0,8Z" transform="translate(46.268 181.593)"/>
    <path id="Linea_75" data-name="Linea 75" d="M0,117.828a4,4,0,0,1-4-4V0A4,4,0,0,1,0-4,4,4,0,0,1,4,0V113.828A4,4,0,0,1,0,117.828Z" transform="translate(225.32 183.198)" fill="#e00008"/>
  </g>
</svg>
