<svg xmlns="http://www.w3.org/2000/svg" xmlns:xlink="http://www.w3.org/1999/xlink" width="500" height="500" viewBox="0 0 500 500">
  <defs>
    <clipPath id="clip-MOTRIO_-_Icon_AirCond">
      <rect width="500" height="500"/>
    </clipPath>
  </defs>
  <g id="MOTRIO_-_Icon_AirCond" data-name="MOTRIO - Icon AirCond" clip-path="url(#clip-MOTRIO_-_Icon_AirCond)">
    <path id="Linea_33" data-name="Linea 33" d="M0,201.716a4,4,0,0,1-4-4V0A4,4,0,0,1,0-4,4,4,0,0,1,4,0V197.716A4,4,0,0,1,0,201.716Z" transform="translate(249.787 150.658)"/>
    <path id="Linea_34" data-name="Linea 34" d="M21.807,21.1a3.983,3.983,0,0,1-2.466-.853l-21.81-17.1a4,4,0,0,1-.679-5.616,4,4,0,0,1,5.616-.679l21.81,17.1A4,4,0,0,1,21.807,21.1Z" transform="translate(227.977 158.097)"/>
    <path id="Linea_35" data-name="Linea 35" d="M0,17.705a4,4,0,0,1-3.546-2.143,4,4,0,0,1,1.685-5.4l26.139-13.7a4,4,0,0,1,5.4,1.685A4,4,0,0,1,28,3.543L1.857,17.247A3.983,3.983,0,0,1,0,17.705Z" transform="translate(223.647 323.835)"/>
    <path id="Tracciato_24" data-name="Tracciato 24" d="M13.453,61.569a4,4,0,0,1-2.129-7.389L32.985,40.594l-2.05-23.9a4,4,0,0,1,7.971-.684l2.259,26.328a4,4,0,0,1-1.86,3.731L15.574,60.957A3.981,3.981,0,0,1,13.453,61.569Z" transform="translate(145.109 174.136)"/>
    <path id="Linea_36" data-name="Linea 36" d="M89.789,45.381a3.985,3.985,0,0,1-1.672-.368L-1.674,3.633A4,4,0,0,1-3.633-1.674,4,4,0,0,1,1.674-3.633l89.792,41.38a4,4,0,0,1-1.677,7.634Z" transform="translate(159.997 206.546)"/>
    <path id="Tracciato_25" data-name="Tracciato 25" d="M49.307,137.459a4,4,0,0,1-3.954-3.395l-5.373-35.1L14.678,79.8a4,4,0,0,1,.119-6.464L39.956,55.7l5.386-40.318a4,4,0,0,1,5.83-3.009l35.287,18.6a4,4,0,0,1-3.73,7.077L52.513,22.125,47.653,58.5a4,4,0,0,1-1.669,2.746l-22.1,15.489L46.1,93.565a4,4,0,0,1,1.539,2.583l4.841,31.626L83.036,114.86a4,4,0,0,1,3.115,7.369L50.865,137.144A4,4,0,0,1,49.307,137.459Z" transform="translate(165.193 171.692)"/>
    <path id="Tracciato_26" data-name="Tracciato 26" d="M35.569,75.415l-.115,0A4,4,0,0,1,31.569,71.3l.75-26.594L11.436,31.326a4,4,0,0,1,4.317-6.736l22.787,14.6a4,4,0,0,1,1.84,3.481l-.814,28.854A4,4,0,0,1,35.569,75.415Z" transform="translate(145.91 238.062)"/>
    <path id="Linea_37" data-name="Linea 37" d="M0,45.381a4,4,0,0,1-3.635-2.327,4,4,0,0,1,1.959-5.307L88.118-3.633a4,4,0,0,1,5.307,1.959,4,4,0,0,1-1.959,5.307L1.674,45.013A3.986,3.986,0,0,1,0,45.381Z" transform="translate(159.997 249.516)"/>
    <path id="Linea_38" data-name="Linea 38" d="M0,21.1a3.993,3.993,0,0,1-3.15-1.532,4,4,0,0,1,.679-5.616l21.81-17.1a4,4,0,0,1,5.616.679,4,4,0,0,1-.679,5.616l-21.81,17.1A3.983,3.983,0,0,1,0,21.1Z" transform="translate(249.781 158.097)"/>
    <path id="Linea_39" data-name="Linea 39" d="M26.13,17.705a3.982,3.982,0,0,1-1.854-.458L-1.858,3.542a4,4,0,0,1-1.685-5.4,4,4,0,0,1,5.4-1.685l26.133,13.7a4,4,0,0,1-1.861,7.543Z" transform="translate(249.787 323.835)"/>
    <path id="Tracciato_27" data-name="Tracciato 27" d="M61.555,61.569a3.981,3.981,0,0,1-2.121-.612L35.7,46.074a4,4,0,0,1-1.86-3.731L36.1,16.015a4,4,0,0,1,7.971.684l-2.05,23.9L63.684,54.179a4,4,0,0,1-2.129,7.389Z" transform="translate(279.452 174.136)"/>
    <path id="Linea_40" data-name="Linea 40" d="M0,45.381a4,4,0,0,1-3.635-2.327,4,4,0,0,1,1.958-5.307L88.1-3.633a4,4,0,0,1,5.307,1.958,4,4,0,0,1-1.958,5.307L1.674,45.013A3.985,3.985,0,0,1,0,45.381Z" transform="translate(249.789 206.546)"/>
    <path id="Tracciato_28" data-name="Tracciato 28" d="M62.741,137.459a4,4,0,0,1-1.557-.316L25.9,122.228a4,4,0,0,1,3.115-7.369l30.546,12.914,4.841-31.625a4,4,0,0,1,1.539-2.583l22.22-16.829-22.1-15.489A4,4,0,0,1,64.4,58.5L59.536,22.125,29.327,38.052A4,4,0,1,1,25.6,30.975l35.28-18.6a4,4,0,0,1,5.83,3.009L72.093,55.7,97.251,73.335A4,4,0,0,1,97.37,79.8l-25.3,19.164-5.373,35.1a4,4,0,0,1-3.954,3.395Z" transform="translate(222.325 171.692)"/>
    <path id="Tracciato_29" data-name="Tracciato 29" d="M38.64,75.415a4,4,0,0,1-4-3.887L33.83,42.674a4,4,0,0,1,1.84-3.481l22.787-14.6a4,4,0,0,1,4.317,6.736L41.89,44.709,42.64,71.3a4,4,0,0,1-3.886,4.111Z" transform="translate(279.449 238.062)"/>
    <path id="Linea_41" data-name="Linea 41" d="M89.776,45.381a3.984,3.984,0,0,1-1.672-.368L-1.674,3.633A4,4,0,0,1-3.633-1.674,4,4,0,0,1,1.674-3.633l89.779,41.38a4,4,0,0,1-1.677,7.634Z" transform="translate(249.789 249.516)"/>
    <path id="Tracciato_30" data-name="Tracciato 30" d="M17.23,234.913a4,4,0,0,1-3.634-2.325A165.1,165.1,0,0,1-1.655,162.9C-1.655,71.132,73-3.525,164.767-3.525A164.928,164.928,0,0,1,265.378,30.324a4,4,0,1,1-4.841,6.369,156.991,156.991,0,0,0-95.77-32.218C77.413,4.475,6.345,75.543,6.345,162.9A157.151,157.151,0,0,0,20.86,229.236a4,4,0,0,1-3.629,5.677Z" transform="translate(83.922 86.619)"/>
    <path id="Tracciato_31" data-name="Tracciato 31" d="M52.708,32.139l1.387,61.654L0,64.171Z" transform="translate(70.999 261.103)"/>
    <path id="Tracciato_32" data-name="Tracciato 32" d="M108.059,245.693a165.172,165.172,0,0,1-97.776-31.735,4,4,0,0,1,4.705-6.47,157.222,157.222,0,0,0,93.071,30.205c87.354,0,158.422-71.068,158.422-158.422a157.379,157.379,0,0,0-12.616-62.052,4,4,0,1,1,7.36-3.137,165.335,165.335,0,0,1,13.257,65.188C274.482,171.037,199.825,245.693,108.059,245.693Z" transform="translate(140.63 170.245)" fill="#e00008"/>
    <path id="Tracciato_33" data-name="Tracciato 33" d="M46.689,71.471,47.067,9.8,100.29,40.957Z" transform="translate(328.28 138.029)" fill="#e00008"/>
  </g>
</svg>
